<svg xmlns="http://www.w3.org/2000/svg" width="420" height="594" viewBox="0 0 420 594"><defs><filter id="s"><feDropShadow dx="0" dy="5" stdDeviation="5" flood-color="#2B2118" flood-opacity=".18"/></filter><g id="b" stroke="#2B2118" stroke-width="2"><path d="M0 9L15 0l15 9-15 9z" fill="#5BA83F"/><path d="M0 9v15l15 9V18z" fill="#8B5E3C"/><path d="M15 18v15l15-9V9z" fill="#5F3F27"/></g></defs><rect x="13" y="9" width="394" height="570" fill="#FDF6E8" stroke="#2B2118" stroke-width="3" filter="url(#s)"/><path d="M14 10h392v72H14z" fill="#F2A93B"/><path d="M14 68h392v14H14z" fill="#8B5E3C"/><g fill="#2B2118"><rect x="38" y="27" width="211" height="11"/><rect x="38" y="48" width="139" height="7"/></g><g fill="#9AA0A6"><rect x="34" y="103" width="302" height="7"/><rect x="34" y="118" width="256" height="6"/><rect x="34" y="132" width="179" height="6"/></g>
<g transform="translate(57 188)"><use href="#b" x="0" y="66"/><use href="#b" x="30" y="66"/><use href="#b" x="60" y="66"/><use href="#b" x="90" y="66"/><use href="#b" x="15" y="42"/><use href="#b" x="45" y="42"/><use href="#b" x="75" y="42"/><use href="#b" x="30" y="18"/><use href="#b" x="60" y="18"/></g><g transform="translate(235 188)"><use href="#b" x="0" y="66"/><use href="#b" x="30" y="66"/><use href="#b" x="60" y="66"/><use href="#b" x="90" y="66"/><use href="#b" x="15" y="42"/><use href="#b" x="45" y="42"/><use href="#b" x="75" y="42"/><use href="#b" x="30" y="18"/></g>
<path d="M52 329h316" stroke="#9AA0A6" stroke-width="3" stroke-dasharray="8 7"/><g stroke="#2B2118" stroke-width="3" fill="#FDF6E8"><rect x="44" y="365" width="145" height="70"/><rect x="231" y="365" width="145" height="70"/><rect x="44" y="458" width="145" height="70"/><rect x="231" y="458" width="145" height="70"/></g><g fill="#2C6E9B"><rect x="75" y="389" width="83" height="14"/><rect x="262" y="389" width="83" height="14"/><rect x="75" y="482" width="83" height="14"/><rect x="262" y="482" width="83" height="14"/></g><g fill="#6B7075"><rect x="88" y="412" width="57" height="7"/><rect x="275" y="412" width="57" height="7"/><rect x="88" y="505" width="57" height="7"/><rect x="275" y="505" width="57" height="7"/></g></svg>
